<svg viewBox="0 0 44 44" xmlns="http://www.w3.org/2000/svg"><path d="M27.273 20.76l-4.285-2.99v-4.812l7.744 5.387-3.46 2.414zM29.05 22l2.474-1.726v3.452L29.05 22zm-6.062 4.23l4.285-2.99 3.46 2.415-7.745 5.387v-4.81zm-6.26-2.99l4.284 2.99v4.812l-7.744-5.387 3.46-2.414zM14.948 22l-2.473 1.726v-3.452L14.95 22zm6.063-4.23l-4.28 2.99-3.46-2.415 7.75-5.387v4.81zm.99 6.67L18.51 22 22 19.56 25.496 22 22 24.44zm11.49-6.275c0-.03-.01-.06-.01-.087l-.016-.05c-.006-.025-.014-.05-.024-.075l-.025-.05c-.01-.024-.02-.047-.033-.07l-.03-.047-.04-.063-.035-.044-.05-.06-.04-.04-.055-.05-.045-.04-.016-.02-10.51-7.31c-.333-.23-.766-.23-1.1 0l-10.513 7.32c-.005.003-.01.01-.015.012l-.044.03-.06.05-.04.04-.05.055-.04.043c-.014.02-.03.045-.04.066-.01.02-.02.03-.03.05l-.033.07-.02.05c-.01.025-.02.05-.026.076l-.016.05c-.01.026-.013.055-.02.085l-.006.045c-.005.042-.01.087-.01.133v7.313c0 .047.005.09.01.136 0 .015.006.03.01.045.005.03.01.056.017.085l.015.05.026.08.024.05c.01.02.02.043.034.065l.03.048c.012.024.026.045.04.065.01.014.022.03.034.043.018.02.034.04.05.055l.04.04.057.05c.013.01.027.025.043.036.004.004.01.01.015.012l10.517 7.32c.164.115.355.173.546.173.19 0 .383-.057.55-.173l10.51-7.313.017-.012c.016-.01.03-.02.046-.033.02-.016.04-.03.055-.05l.04-.04.05-.055.03-.046c.015-.02.03-.04.04-.063l.03-.04c.013-.02.024-.045.034-.07l.02-.048c.01-.026.02-.05.02-.077l.016-.05.02-.086.006-.043c.007-.043.01-.087.01-.133v-7.32c0-.044-.003-.09-.01-.133 0-.018-.004-.03-.007-.047z" fill="#50514F"/></svg>
