<svg viewBox="0 0 44 44" xmlns="http://www.w3.org/2000/svg"><path d="M10 22.3044c0 5.4354 3.438 10.0475 8.2065 11.6745.6004.113.8192-.267.8192-.593 0-.2928-.0103-1.066-.0162-2.0928-3.338.7432-4.042-1.6497-4.042-1.6497-.546-1.4216-1.3328-1.8-1.3328-1.8-1.0895-.7637.0825-.7478.0825-.7478 1.2045.087 1.838 1.268 1.838 1.268 1.0712 1.88 2.809 1.337 3.4926 1.022.109-.7953.4192-1.337.7617-1.645-2.6645-.3105-5.466-1.3657-5.466-6.0805 0-1.344.4677-2.442 1.2353-3.3024-.123-.311-.5348-1.562.118-3.2555 0 0 1.0076-.3316 3.2994 1.2606.9577-.2727 1.984-.4094 3.0042-.414 1.0195.0046 2.0457.1413 3.0048.414 2.2904-1.592 3.2967-1.2606 3.2967-1.2606.654 1.6935.242 2.9444.119 3.2556.769.8604 1.233 1.9586 1.233 3.3024 0 4.726-2.8054 5.766-5.4787 6.0712.431.38.814 1.1307.814 2.278 0 1.6452-.014 2.9723-.014 3.3757 0 .3292.2158.7114.825.5913C30.565 32.3473 34 27.739 34 22.3043 34 15.5088 28.6267 10 21.999 10 15.3732 10 10 15.5087 10 22.3044z" fill="#50514F"/></svg>
