<svg width="150" height="150" viewBox="0 0 150 150" xmlns="http://www.w3.org/2000/svg">
    <g fill="none" fill-rule="evenodd">
        <path d="M149.5 75.4L75.1 150 .67 75.4 75.07.8l74.43 74.6z" stroke="#F4F4F4" stroke-width="3"/>
        <path d="M58.4 77.05v-3.32l10.02-11.6-10-13.3v-2.48H77.6v3.32H63.4l9.2 12.45-9.2 11.6h15.02v3.33h-20zm33.36-3.32H78.42v3.32h9.17v16.6c.12 4.74-2.4 7.63-6.7 7.47-2.2.16-4.53-.28-7.5-2.5l-1.67 2.5c2.56 2.36 5.72 3.32 9.17 3.32 8.34 0 10.85-5.53 10.85-10.8v-19.9z" fill="#F4F4F4"/>
    </g>
</svg>
