<svg viewBox="0 0 44 44" xmlns="http://www.w3.org/2000/svg"><path d="M30.53 16.85c.9-.57 1.57-1.46 1.9-2.52-.84.52-1.76.9-2.75 1.1-.78-.88-1.9-1.43-3.14-1.43-2.38 0-4.3 2.03-4.3 4.54 0 .36.03.7.1 1.04-3.58-.2-6.75-2-8.88-4.75-.37.67-.58 1.45-.58 2.3 0 1.56.76 2.95 1.92 3.77-.7-.02-1.38-.23-1.96-.57v.06c0 2.2 1.5 4 3.46 4.4-.36.1-.74.16-1.14.16-.27 0-.54-.04-.8-.1.54 1.8 2.13 3.13 4.02 3.17C16.9 29.3 15.05 30 13.03 30c-.35 0-.7 0-1.03-.05 1.9 1.3 4.17 2.04 6.6 2.04 7.93 0 12.26-6.96 12.26-12.97v-.6C31.7 17.8 32.42 17 33 16.1c-.77.37-1.6.6-2.47.73z" fill="#50514F"/></svg>
